<?xml version="1.0" encoding="UTF-8" standalone="no"?>
<svg width="144px" height="144px" viewBox="0 0 144 144" version="1.1" xmlns="http://www.w3.org/2000/svg" xmlns:xlink="http://www.w3.org/1999/xlink" xmlns:sketch="http://www.bohemiancoding.com/sketch/ns">
    <title>apple-touch-icon-144x144</title>
    <description>Created with Sketch (http://www.bohemiancoding.com/sketch)</description>
    <defs></defs>
    <g id="Page-1" stroke="none" stroke-width="1" fill="none" fill-rule="evenodd" sketch:type="MSPage">
        <g id="apple-touch-icon-144x144" sketch:type="MSArtboardGroup">
            <rect id="bck" fill="#FFFFFF" sketch:type="MSShapeGroup" x="0" y="0" width="144" height="144"></rect>
            <path d="M39.2223402,15.3418945 C47.9607364,17.2717671 55,26.9211301 55,37.0529613 C55,40.1270269 54.319458,41.793457 54.0567017,42.0961304 C53.8756104,42.241394 50.8757742,40.7199244 46.2616038,37.5354295 C31.3335103,27.2829812 26.721579,12.5677026 39.2223402,15.3418945 Z M89.470686,78.3070303 C73.6656091,74.9661114 57.6210614,79.7388527 57.6210614,87.7331943 L57.6210614,90.0002464 L60.9736534,87.4945572 C75.7011115,76.6365709 109.346768,89.7616094 116.8901,109.21053 C125.870257,132.835599 84.5615334,132.835599 49.5987875,109.21053 C25.6517012,92.9832097 24.0951406,78.5456674 44.4501639,62.4376656 C48.7606394,58.9774281 53.6697921,54.9205981 55.3460882,53.3694571 L58.4137383,50.6360664 C61.9563444,51.5225079 65.0446581,51.8183162 65.0446581,51.8183162 C85.8238907,54.8955078 105.156028,37.1421368 92.5838072,25.0909651 C87.9141254,20.6761794 85.3996814,20.9148165 89.2312152,25.5682392 C98.0916371,36.06827 83.0049727,49.5512641 66.122277,46.2103452 C66.122277,46.2103452 61.7315674,45.1556396 61.8820801,44.5703125 C62.045917,43.9331689 63.1288912,39.647826 63.1288912,39.647826 C65.5235998,22.1080018 52.1132315,6 35.2305357,6 C14.6360416,6 19.3057234,30.0284766 42.534397,43.6307893 C46.9815096,46.2547798 50.0200996,47.7246094 50.0200996,47.7246094 C49.7014618,48.4349785 46.0222968,51.3659751 39.9002175,55.6365092 C29.8424413,62.6763026 19.9044006,72.5797408 18.1083691,77.352482 C7.69138658,104.795744 73.1866674,146.676549 110.424386,136.415155 C142.513482,127.466265 127.786024,86.4206905 89.470686,78.3070303 Z" id="S" fill="#CB6898" sketch:type="MSShapeGroup" transform="translate(72.500000, 72.000000) scale(1, -1) translate(-72.500000, -72.000000) "></path>
        </g>
    </g>
</svg>